<svg width="400" height="468" viewBox="0 0 400 468" fill="none" xmlns="http://www.w3.org/2000/svg">
<path d="M182.465 3.40986C217.468 -6.39618 248.999 5.17278 269.532 35.2138C286.115 59.4753 297.523 86.5768 311.126 112.469C334.55 157.054 358.043 201.606 381.023 246.418C391.633 267.107 399.712 289.074 399.99 312.524C400.56 360.666 376.6 396.008 338.151 422.204C306.613 443.692 270.492 451.59 232.919 453.849C231.992 453.905 231.029 453.347 229.583 452.932C230.768 445.359 236.523 440.606 240.252 434.821C271.351 386.563 290.902 334.678 288.263 276.431C286.823 244.65 278.324 214.574 257.761 189.363C232.179 158 188.25 161.104 167.694 196.073C149.415 227.168 150.137 259.003 168.762 289.894C175.062 300.345 182.587 310.139 190.242 319.679C212.827 347.824 219.438 378.782 204.782 412.149C190.143 445.48 163.203 462.994 127.154 467.228C63.364 474.721 12.5693 426.56 2.23663 371.241C-3.75703 339.153 2.78958 309.076 15.9814 280.052C40.3641 226.405 70.7511 175.829 96.7986 123.024C110.649 94.9454 124.599 66.9049 140.422 39.8515C150.158 23.2061 162.798 9.89958 182.465 3.40986Z" fill="black"/>
</svg>
