<svg width="780" height="230" viewBox="0 0 780 230" fill="none" xmlns="http://www.w3.org/2000/svg">
<path d="M89.2435 1.66876C106.363 -3.13025 121.785 2.53153 131.828 17.2334C139.939 29.1068 145.518 42.3701 152.171 55.0417C163.628 76.8611 175.118 98.6645 186.358 120.596C191.547 130.721 195.499 141.471 195.634 152.947C195.913 176.508 184.194 193.804 165.389 206.624C149.964 217.14 132.297 221.005 113.92 222.111C113.467 222.138 112.996 221.865 112.288 221.662C112.868 217.956 115.683 215.63 117.507 212.798C132.717 189.182 142.28 163.789 140.989 135.284C140.284 119.73 136.128 105.011 126.07 92.673C113.558 77.3244 92.0728 78.843 82.0187 95.9568C73.0784 111.175 73.4317 126.754 82.5409 141.872C85.6227 146.987 89.3028 151.78 93.0472 156.449C104.093 170.223 107.327 185.373 100.159 201.703C92.9986 218.015 79.8224 226.586 62.1909 228.658C30.9912 232.325 6.14764 208.756 1.09393 181.683C-1.83756 165.979 1.36438 151.26 7.81645 137.056C19.742 110.801 34.6042 86.0497 47.344 60.2074C54.1184 46.4657 60.9413 32.7428 68.6803 19.5031C73.4419 11.3569 79.6242 4.84479 89.2435 1.66876Z" fill="black"/>
<path d="M309.634 181C269.634 181 249.234 163.4 249.234 135.2V134H270.834V137.2C270.834 153.2 280.234 161.2 309.634 161.2C335.234 161.2 344.234 155.6 344.234 143C344.234 131.4 337.434 127 320.434 123.8L287.634 118.4C265.034 114.4 249.034 104 249.034 82C249.034 62.6 265.034 43 306.634 43C345.834 43 363.634 62.6 363.634 88.8V90H342.234V87.4C342.234 71 332.434 62.8 304.634 62.8C280.234 62.8 270.634 68.8 270.634 80.8C270.634 92.4 277.434 96.2 293.234 99.6L325.834 105.2C352.634 110 365.834 122.2 365.834 141.8C365.834 162.2 349.234 181 309.634 181ZM402.768 68H381.168V45H402.768V68ZM402.768 179H381.168V79.6H402.768V179ZM466.57 181C435.17 181 417.77 160 417.77 129.4C417.77 98.4 434.97 77.6 465.17 77.6C488.77 77.6 502.17 89.8 506.17 106.6H507.37V45H528.97V179H509.17V150.4H507.77C503.57 170.2 488.97 181 466.57 181ZM439.57 129.4C439.57 153.2 451.77 161.2 473.17 161.2C494.37 161.2 507.37 151.2 507.37 130.4V128.8C507.37 107.6 494.97 97.2 472.77 97.2C451.97 97.2 439.57 105.4 439.57 129.4ZM598.941 181C566.341 181 544.941 162.6 544.941 129.4C544.941 98.4 566.141 77.6 598.541 77.6C629.341 77.6 650.341 94.6 650.341 124.8C650.341 128.4 650.141 131.2 649.541 134.2H565.141C565.941 153.4 575.341 163.6 598.341 163.6C619.141 163.6 627.741 156.8 627.741 145V143.4H649.341V145.2C649.341 166.4 628.541 181 598.941 181ZM598.141 94.6C576.141 94.6 566.541 104.4 565.341 122.2H629.941V121.8C629.941 103.4 619.341 94.6 598.141 94.6ZM688.12 179H666.52V79.6H686.32V110.4H687.72C690.72 93.6 703.92 77.6 729.12 77.6C756.72 77.6 770.32 96.2 770.32 119.2V179H748.72V125C748.72 106.4 740.32 97 719.72 97C697.92 97 688.12 108.2 688.12 129.8V179Z" fill="black"/>
</svg>
